<mxfile host="Electron" agent="Mozilla/5.0 (Windows NT 10.0; Win64; x64) AppleWebKit/537.36 (KHTML, like Gecko) draw.io/24.7.17 Chrome/128.0.6613.36 Electron/32.0.1 Safari/537.36" version="24.7.17">
  <diagram name="第 1 页" id="8CtCuOsys3hR2p4QYqbM">
    <mxGraphModel dx="1221" dy="823" grid="1" gridSize="10" guides="1" tooltips="1" connect="1" arrows="1" fold="1" page="1" pageScale="1" pageWidth="827" pageHeight="1169" math="0" shadow="0">
      <root>
        <mxCell id="0" />
        <mxCell id="1" parent="0" />
        <mxCell id="AAzNbXR31eo6BCxiC4Rg-3" value="" style="edgeStyle=orthogonalEdgeStyle;rounded=0;orthogonalLoop=1;jettySize=auto;html=1;" edge="1" parent="1" source="AAzNbXR31eo6BCxiC4Rg-1" target="AAzNbXR31eo6BCxiC4Rg-2">
          <mxGeometry relative="1" as="geometry" />
        </mxCell>
        <mxCell id="AAzNbXR31eo6BCxiC4Rg-1" value="&lt;font style=&quot;font-size: 14px;&quot;&gt;程序开始&lt;/font&gt;" style="ellipse;whiteSpace=wrap;html=1;" vertex="1" parent="1">
          <mxGeometry x="360" y="160" width="120" height="40" as="geometry" />
        </mxCell>
        <mxCell id="AAzNbXR31eo6BCxiC4Rg-5" value="" style="edgeStyle=orthogonalEdgeStyle;rounded=0;orthogonalLoop=1;jettySize=auto;html=1;" edge="1" parent="1" source="AAzNbXR31eo6BCxiC4Rg-2" target="AAzNbXR31eo6BCxiC4Rg-4">
          <mxGeometry relative="1" as="geometry" />
        </mxCell>
        <mxCell id="AAzNbXR31eo6BCxiC4Rg-2" value="&lt;font style=&quot;font-size: 14px;&quot;&gt;输入三边长&lt;/font&gt;" style="shape=parallelogram;perimeter=parallelogramPerimeter;whiteSpace=wrap;html=1;fixedSize=1;" vertex="1" parent="1">
          <mxGeometry x="360" y="240" width="120" height="40" as="geometry" />
        </mxCell>
        <mxCell id="AAzNbXR31eo6BCxiC4Rg-9" value="" style="edgeStyle=orthogonalEdgeStyle;rounded=0;orthogonalLoop=1;jettySize=auto;html=1;" edge="1" parent="1" source="AAzNbXR31eo6BCxiC4Rg-4" target="AAzNbXR31eo6BCxiC4Rg-6">
          <mxGeometry relative="1" as="geometry" />
        </mxCell>
        <mxCell id="AAzNbXR31eo6BCxiC4Rg-4" value="&lt;font style=&quot;font-size: 14px;&quot;&gt;计算三角形面积&lt;/font&gt;" style="rounded=0;whiteSpace=wrap;html=1;" vertex="1" parent="1">
          <mxGeometry x="360" y="320" width="120" height="40" as="geometry" />
        </mxCell>
        <mxCell id="AAzNbXR31eo6BCxiC4Rg-8" value="" style="edgeStyle=orthogonalEdgeStyle;rounded=0;orthogonalLoop=1;jettySize=auto;html=1;" edge="1" parent="1" source="AAzNbXR31eo6BCxiC4Rg-6" target="AAzNbXR31eo6BCxiC4Rg-7">
          <mxGeometry relative="1" as="geometry" />
        </mxCell>
        <mxCell id="AAzNbXR31eo6BCxiC4Rg-6" value="&lt;font style=&quot;font-size: 14px;&quot;&gt;输出面积&lt;/font&gt;" style="shape=parallelogram;perimeter=parallelogramPerimeter;whiteSpace=wrap;html=1;fixedSize=1;" vertex="1" parent="1">
          <mxGeometry x="360" y="400" width="120" height="40" as="geometry" />
        </mxCell>
        <mxCell id="AAzNbXR31eo6BCxiC4Rg-7" value="&lt;font style=&quot;font-size: 14px;&quot;&gt;程序结束&lt;/font&gt;" style="ellipse;whiteSpace=wrap;html=1;" vertex="1" parent="1">
          <mxGeometry x="360" y="480" width="120" height="40" as="geometry" />
        </mxCell>
      </root>
    </mxGraphModel>
  </diagram>
</mxfile>
